HIERARCHY
ROOT Hips
{
	OFFSET 0.00000 0.00000 0.00000
	CHANNELS 6 Xposition Yposition Zposition Zrotation Yrotation Xrotation 
	JOINT LHipJoint
	{
		OFFSET 0 0 0
		CHANNELS 3 Zrotation Yrotation Xrotation
		JOINT LeftUpLeg
		{
			OFFSET 1.75344 -1.53157 0.77399
			CHANNELS 3 Zrotation Yrotation Xrotation
			JOINT LeftLeg
			{
				OFFSET 2.25415 -6.19323 0.00000
				CHANNELS 3 Zrotation Yrotation Xrotation
				JOINT LeftFoot
				{
					OFFSET 2.30342 -6.32861 0.00000
					CHANNELS 3 Zrotation Yrotation Xrotation
					JOINT LeftToeBase
					{
						OFFSET 0.10958 -0.30108 1.49206
						CHANNELS 3 Zrotation Yrotation Xrotation
						End Site
						{
							OFFSET 0.00000 -0.00000 0.77783
						}
					}
				}
			}
		}
	}
	JOINT RHipJoint
	{
		OFFSET 0 0 0
		CHANNELS 3 Zrotation Yrotation Xrotation
		JOINT RightUpLeg
		{
			OFFSET -1.81912 -1.53156 0.77399
			CHANNELS 3 Zrotation Yrotation Xrotation
			JOINT RightLeg
			{
				OFFSET -2.22882 -6.12365 0.00000
				CHANNELS 3 Zrotation Yrotation Xrotation
				JOINT RightFoot
				{
					OFFSET -2.21943 -6.09785 0.00000
					CHANNELS 3 Zrotation Yrotation Xrotation
					JOINT RightToeBase
					{
						OFFSET -0.18931 -0.52012 1.59379
						CHANNELS 3 Zrotation Yrotation Xrotation
						End Site
						{
							OFFSET -0.00000 -0.00000 0.84686
						}
					}
				}
			}
		}
	}
	JOINT LowerBack
	{
		OFFSET 0 0 0
		CHANNELS 3 Zrotation Yrotation Xrotation
		JOINT Spine
		{
			OFFSET -0.00200 1.66634 -0.14248
			CHANNELS 3 Zrotation Yrotation Xrotation
			JOINT Spine1
			{
				OFFSET -0.00875 1.64542 0.09514
				CHANNELS 3 Zrotation Yrotation Xrotation
				JOINT Neck
				{
					OFFSET 0 0 0
					CHANNELS 3 Zrotation Yrotation Xrotation
					JOINT Neck1
					{
						OFFSET 0.02257 1.59605 0.00839
						CHANNELS 3 Zrotation Yrotation Xrotation
						JOINT Head
						{
							OFFSET -0.10214 1.57530 -0.23335
							CHANNELS 3 Zrotation Yrotation Xrotation
							End Site
							{
								OFFSET -0.03588 1.60717 -0.08062
							}
						}
					}
				}
				JOINT LeftShoulder
				{
					OFFSET 0 0 0
					CHANNELS 3 Zrotation Yrotation Xrotation
					JOINT LeftArm
					{
						OFFSET 2.54983 1.10186 0.40078
						CHANNELS 3 Zrotation Yrotation Xrotation
						JOINT LeftForeArm
						{
							OFFSET 4.28840 -0.00000 0.00000
							CHANNELS 3 Zrotation Yrotation Xrotation
							JOINT LeftHand
							{
								OFFSET 3.06552 -0.00000 -0.00000
								CHANNELS 3 Zrotation Yrotation Xrotation
								JOINT LeftFingerBase
								{
									OFFSET 0 0 0
									CHANNELS 3 Zrotation Yrotation Xrotation
									JOINT LeftHandIndex1
									{
										OFFSET 0.75304 -0.00000 0.00000
										CHANNELS 3 Zrotation Yrotation Xrotation
										End Site
										{
											OFFSET 0.60712 -0.00000 0.00000
										}
									}
								}
								JOINT LThumb
								{
									OFFSET 0 0 0
									CHANNELS 3 Zrotation Yrotation Xrotation
									End Site
									{
										OFFSET 0.61639 -0.00000 0.61639
									}
								}
							}
						}
					}
				}
				JOINT RightShoulder
				{
					OFFSET 0 0 0
					CHANNELS 3 Zrotation Yrotation Xrotation
					JOINT RightArm
					{
						OFFSET -2.60909 1.35448 0.21802
						CHANNELS 3 Zrotation Yrotation Xrotation
						JOINT RightForeArm
						{
							OFFSET -4.52172 -0.00000 -0.00000
							CHANNELS 3 Zrotation Yrotation Xrotation
							JOINT RightHand
							{
								OFFSET -2.89140 -0.00000 0.00000
								CHANNELS 3 Zrotation Yrotation Xrotation
								JOINT RightFingerBase
								{
									OFFSET 0 0 0
									CHANNELS 3 Zrotation Yrotation Xrotation
									JOINT RightHandIndex1
									{
										OFFSET -0.68054 -0.00000 0.00000
										CHANNELS 3 Zrotation Yrotation Xrotation
										End Site
										{
											OFFSET -0.54867 -0.00000 0.00000
										}
									}
								}
								JOINT RThumb
								{
									OFFSET 0 0 0
									CHANNELS 3 Zrotation Yrotation Xrotation
									End Site
									{
										OFFSET -0.55705 -0.00000 0.55705
									}
								}
							}
						}
					}
				}
			}
		}
	}
}
MOTION
Frames: 5
Frame Time: .0083333
8.4426 15.1215 42.294 0 0 0 0 0 0 -21 0 0 0 0 0 0 0 0 0 0 0 0 0 0 21 0 0 0 0 0 0 0 0 0 0 0 0 0 0 0 0 0 0 0 0 0 0 -16 0 0 21 0 0 11 0 0 0 -8 0 0 0 0 0 0 0 0 0 0 0 0 0 0 0 0 0 0 0 0 8 0 0 0 0 0 0 0 0 0 0 0 0 0 0 0 0 0
8.4426 15.1215 42.2940 -179.4900 -11.4936 -179.8730 0.0000 0.0000 0.0000 -26.3873 -25.6701 -2.3974 2.6023 10.0216 29.0468 1.7689 1.8280 -25.8507 1.4229 -7.5434 -21.3356 0.0000 0.0000 0.0000 24.0829 8.4759 -5.1873 -2.5544 -9.9361 28.7702 -0.9023 -20.3597 -34.5622 -0.3351 -3.7199 10.2900 1.3634 2.7859 4.1070 -0.5612 3.7613 -0.1768 -1.5634 1.8539 -2.3550 8.8904 16.2487 -0.9551 -5.5574 21.6497 0.4488 -2.4867 10.7996 1.9657 -0.0000 0.0000 0.0000 -84.3962 5.5464 44.5122 21.0780 -31.9193 -6.0911 -0.0000 -0.0000 11.5869 2.0823 -36.9859 -1.2531 -7.1250 0.0000 -0.0000 -16.7962 -5.6479 19.1740 -0.0000 0.0000 0.0000 84.4462 -6.8185 51.2072 -18.4450 28.7232 -4.7612 0.0000 0.0000 13.7610 -12.8580 -53.5106 10.3988 7.1250 -0.0000 -0.0000 68.4667 -76.1991 -54.7333
8.4479 15.1212 42.2988 -179.7340 -11.5215 -180.0420 0.0000 0.0000 0.0000 -26.7035 -25.5137 -2.0887 2.5586 9.9437 28.7946 1.7504 1.8667 -25.7347 1.4847 -7.6982 -21.8011 0.0000 0.0000 0.0000 23.9356 8.6991 -4.9957 -2.6027 -10.0223 29.0490 -0.9905 -20.3008 -34.9957 -0.3827 -3.9727 11.0000 1.0075 2.7799 4.4834 -0.5804 3.7362 -0.1462 -1.4038 1.8426 -2.5566 8.8845 16.2761 -1.0078 -5.5038 21.6852 0.6087 -2.4546 10.8182 2.0229 -0.0000 0.0000 0.0000 -84.4257 5.6065 44.5190 21.0024 -31.8311 -6.0512 -0.0000 -0.0000 12.2619 3.5843 -37.4364 -2.1806 -7.1250 0.0000 -0.0000 -16.0430 -6.2340 18.3903 -0.0000 0.0000 0.0000 84.3979 -6.8090 51.2371 -18.4147 28.6849 -4.7466 0.0000 0.0000 14.0417 -12.5705 -53.4294 10.1532 7.1250 -0.0000 -0.0000 68.2479 -76.0675 -54.3882
8.4465 15.1201 42.3150 -179.9710 -10.9947 -180.0020 0.0000 0.0000 0.0000 -26.9643 -25.4389 -2.0999 2.5411 9.9123 28.6931 1.7432 2.3172 -25.8702 1.4965 -7.7274 -21.8891 0.0000 0.0000 0.0000 23.6342 9.0773 -5.0924 -2.6163 -10.0463 29.1267 -0.9340 -20.4579 -34.8496 -0.3609 -3.8595 10.6817 0.8262 2.9436 4.8415 -0.6680 3.9434 -0.2135 -1.4296 1.9441 -2.8265 8.9385 16.3615 -0.8682 -5.5332 21.8097 0.5556 -2.4768 10.8822 2.0006 -0.0000 -0.0000 0.0000 -84.4314 5.5864 44.4338 21.1291 -31.9787 -6.1182 -0.0000 -0.0000 11.7680 2.3905 -37.3750 -1.4517 -7.1250 0.0000 -0.0000 -16.6548 -6.0504 19.1040 -0.0000 -0.0000 0.0000 84.3933 -6.8045 51.3044 -18.4215 28.6935 -4.7499 0.0000 0.0000 14.0669 -11.6017 -53.6945 9.3943 7.1250 -0.0000 -0.0000 69.6350 -75.7659 -55.3419
8.4449 15.1215 42.3008 -179.8930 -11.4681 -179.9520 0.0000 0.0000 0.0000 -26.8723 -25.5485 -2.0232 2.5203 9.8746 28.5718 1.7458 1.9145 -25.7209 1.5086 -7.7572 -21.9791 0.0000 0.0000 0.0000 23.7408 8.8273 -5.1336 -2.6325 -10.0749 29.2198 -0.9635 -20.6876 -35.2650 -0.3840 -3.9797 11.0195 0.8970 2.7905 4.5042 -0.6593 3.7420 -0.1561 -1.4252 1.8459 -2.5801 8.8917 16.3535 -0.9471 -5.4130 21.7875 0.5204 -2.4311 10.8699 1.9786 0.0000 -0.0000 0.0000 -84.3910 5.5635 44.4924 20.9942 -31.8216 -6.0469 -0.0000 -0.0000 12.2553 3.8523 -37.6756 -2.3567 -7.1250 0.0000 -0.0000 -15.9184 -6.4924 18.3000 0.0000 -0.0000 0.0000 84.4275 -6.7680 51.3024 -18.3951 28.6601 -4.7372 0.0000 0.0000 14.0441 -11.8058 -53.6468 9.5554 7.1250 -0.0000 -0.0000 69.3769 -75.8315 -55.1745
